PathFileType	4	(X/Y/Z)	D:\luciana\glass.trc
DataRate	CameraRate	NumFrames	NumMarkers	Units	OrigDataRate	OrigDataStartFrame	OrigNumFrames
250.00	250.00	10	19	mm	250.00	1257	2010
Frame#	Time	pelvisR			PelvisL			Trunk1			Trunk2			Trunk3			C7			shoulder			upperArm1			upperArm2			upperArm3			elbow			forearm1			forearm2			forearm3			wrist1			wrist2			wrist3			Object			Hand			
		X1	Y1	Z1	X2	Y2	Z2	X3	Y3	Z3	X4	Y4	Z4	X5	Y5	Z5	X6	Y6	Z6	X7	Y7	Z7	X8	Y8	Z8	X9	Y9	Z9	X10	Y10	Z10	X11	Y11	Z11	X12	Y12	Z12	X13	Y13	Z13	X14	Y14	Z14	X15	Y15	Z15	X16	Y16	Z16	X17	Y17	Z17	X18	Y18	Z18	X19	Y19	Z19	

1256	5.024000	1733.661056	647.324324	680.489838	1398.787379	648.465633	666.941881	1612.042308	845.926821	939.451814	1643.500924	757.921755	921.528101	1552.864552	791.566133	921.823978	1563.555956	1127.664447	838.019490	1734.826684	1059.933305	770.763516	1814.218521	919.773042	639.114916	1801.223993	874.918103	699.613333	1743.294358	952.651322	623.629212	1764.732361	818.018198	555.969059	1784.647226	790.046394	475.183249	1732.692719	842.684746	473.603845	1753.988266	731.249869	522.443712	1708.171606	785.405755	344.065219	1710.403085	708.097935	365.637869	1644.164085	812.138081	372.752815	1570.560336	768.072486	245.893866	1647.664905	739.349365	269.270211	
1257	5.028000	1733.656883	647.323370	680.495858	1398.839116	648.437381	666.936517	1612.026334	845.881402	939.466655	1643.750906	758.059502	921.665430	1553.475142	792.212009	921.916723	1563.603997	1127.655029	838.114202	1734.852910	1059.930682	770.862758	1814.274430	919.859231	639.166415	1801.282048	874.966323	699.630260	1743.329525	952.705026	623.706460	1763.921022	817.730486	556.246161	1784.764171	790.099680	475.154996	1732.841969	842.805326	473.548412	1754.049182	731.353045	522.430539	1708.191514	785.557330	344.060868	1711.457253	708.611310	365.446836	1644.149184	812.227368	372.778684	1570.553541	768.073201	245.905280	1647.691011	739.455044	269.291312	
1258	5.032000	1733.652830	647.315264	680.485606	1398.823261	648.425579	666.935682	1612.039685	845.857501	939.502060	1644.038320	758.204341	921.808481	1554.228902	793.026209	922.015429	1563.659191	1127.642632	838.206172	1734.870672	1059.921503	770.946622	1814.336061	919.925451	639.213026	1801.329851	874.999106	699.646473	1743.366718	952.758670	623.772264	1763.791800	817.730188	556.322455	1784.878731	790.156424	475.130618	1732.985258	842.917502	473.499894	1754.097462	731.453598	522.418976	1708.200812	785.716474	344.063938	1711.802840	708.839774	365.409911	1644.142151	812.301397	372.816354	1570.552111	768.081188	245.923430	1647.718668	739.551246	269.299030	
1259	5.036000	1733.661890	647.307217	680.477381	1398.831844	648.451149	666.935265	1612.045527	845.802784	939.522982	1643.668175	757.937312	921.632290	1553.192854	791.850626	921.902180	1563.700080	1127.625942	838.297486	1734.893441	1059.901834	771.041751	1814.396501	919.985533	639.256716	1801.382184	875.028133	699.674129	1743.439913	952.830791	623.826146	1763.839006	817.781389	556.346893	1784.973264	790.212274	475.097448	1733.107924	843.016863	473.460793	1754.169703	731.538773	522.416770	1708.208561	785.865188	344.079971	1711.956739	708.986878	365.391791	1644.139647	812.354028	372.852385	1570.556164	768.082976	245.944500	1647.740006	739.636838	269.312620	
1260	5.040000	1733.664751	647.269607	680.467963	1398.822665	648.446262	666.928649	1612.062097	845.749795	939.548552	1643.561721	757.828236	921.583414	1552.934766	791.529834	921.881616	1563.741565	1127.603769	838.384330	1734.931231	1059.876084	771.131337	1814.449549	920.034230	639.308453	1801.447034	875.050664	699.707747	1743.508101	952.883065	623.894095	1763.924718	817.851901	556.376994	1785.064220	790.275693	475.085258	1733.220577	843.107164	473.429173	1754.252076	731.620729	522.415757	1708.212852	786.011875	344.091654	1712.084174	709.107280	365.389436	1644.125342	812.399328	372.904867	1570.565820	768.072486	245.967463	1647.760391	739.726782	269.346297	
1261	5.044000	1733.686447	647.245646	680.456936	1398.781538	648.444593	666.906357	1612.072945	845.718324	939.567685	1643.519282	757.768989	921.576023	1552.868605	791.430593	921.881020	1563.815832	1127.588391	838.447154	1734.984159	1059.859514	771.224916	1814.500690	920.069754	639.370859	1801.498175	875.066519	699.744821	1743.545413	952.900231	623.954415	1764.025211	817.920685	556.403518	1785.162687	790.344059	475.076675	1733.311653	843.193650	473.414630	1754.351020	731.703997	522.408545	1708.223343	786.154926	344.099075	1712.213516	709.227026	365.392596	1644.103050	812.444091	372.955203	1570.571899	768.056810	245.996907	1647.778988	739.814460	269.383371	
1262	5.048000	1733.722687	647.210121	680.430830	1398.809671	648.449481	666.923165	1612.071753	845.668435	939.586520	1643.499255	757.730484	921.577454	1552.851319	791.386664	921.879470	1563.871264	1127.560973	838.511944	1735.029340	1059.839368	771.309018	1814.560413	920.096874	639.439464	1801.549792	875.075161	699.787915	1743.602514	952.941537	624.009013	1764.123082	818.000317	556.410313	1785.253048	790.415585	475.044549	1733.374834	843.271017	473.401368	1754.462004	731.776655	522.403240	1708.222032	786.270320	344.109297	1712.319732	709.318519	365.378678	1644.079328	812.475264	373.002350	1570.604086	768.061280	246.025145	1647.815704	739.902020	269.427508	
1263	5.052000	1733.772516	647.147298	680.397451	1398.826599	648.432493	666.945219	1612.079620	845.604897	939.625323	1643.496871	757.687330	921.578586	1552.854300	791.359246	921.892166	1563.945651	1127.550602	838.590860	1735.078335	1059.805274	771.411777	1814.626336	920.111656	639.510989	1801.595688	875.068665	699.824989	1743.684292	952.963889	624.075532	1764.207721	818.051934	556.430817	1785.351515	790.514946	475.031644	1733.426332	843.340158	473.400176	1754.591227	731.849313	522.390306	1708.221912	786.382318	344.113946	1712.426424	709.399641	365.348607	1644.060612	812.496662	373.043656	1570.641279	768.077075	246.059567	1647.862554	739.975214	269.482315	
1264	5.056000	1733.823776	647.094548	680.378437	1398.776054	648.437977	666.933000	1612.100959	845.565557	939.652562	1643.493176	757.641912	921.594739	1552.851081	791.337609	921.897054	1563.992381	1127.542973	838.664114	1735.128641	1059.768438	771.497786	1814.691305	920.120478	639.579415	1801.631212	875.044107	699.861944	1743.762732	952.982008	624.147296	1764.298916	818.106771	556.444347	1785.429358	790.618420	475.014299	1733.463645	843.419373	473.412007	1754.728913	731.925011	522.367597	1708.219290	786.493897	344.117612	1712.523103	709.488213	365.323901	1644.051313	812.512040	373.092115	1570.667028	768.075407	246.079832	1647.910476	740.028858	269.535422	
1265	5.060000	1733.853817	647.038519	680.351853	1398.740053	648.453951	666.949451	1612.107038	845.535636	939.678490	1643.488646	757.607222	921.611547	1552.846074	791.315317	921.901464	1564.054251	1127.529144	838.731647	1735.188007	1059.737563	771.570921	1814.759851	920.118451	639.654577	1801.668406	875.027597	699.924171	1743.851900	952.996135	624.195099	1764.393568	818.148315	556.452513	1785.496473	790.724039	474.972308	1733.495593	843.487680	473.430216	1754.874349	731.992364	522.345483	1708.225489	786.588192	344.127685	1712.607265	709.560335	365.318030	1644.043803	812.525630	373.144805	1570.687652	768.071294	246.097103	1647.957683	740.096986	269.589901	
